<?xml version="1.0" encoding="utf-8"?>
<!-- Generator: Adobe Illustrator 24.1.2, SVG Export Plug-In . SVG Version: 6.00 Build 0)  -->
<svg version="1.1" id="图层_1" xmlns="http://www.w3.org/2000/svg" xmlns:xlink="http://www.w3.org/1999/xlink" x="0px" y="0px"
	 viewBox="0 0 16 16" style="enable-background:new 0 0 16 16;" xml:space="preserve">
<style type="text/css">
	.st0{fill:#FFC1BA;}
</style>
<g>
	<path class="st0" d="M14.2,1.2H8.6V0.5C8.6,0.2,8.3,0,8.1,0C7.8,0,7.5,0.2,7.5,0.5v0.7H1.8C0.8,1.2,0,2,0,3v8.4
		c0,1,0.8,1.8,1.8,1.8H4l-1.4,1.9c-0.2,0.2-0.1,0.6,0.1,0.7C2.8,16,2.9,16,3,16c0.2,0,0.3-0.1,0.4-0.2l1.8-2.5h5.4l1.9,2.5
		c0.1,0.1,0.3,0.2,0.4,0.2c0.1,0,0.2,0,0.3-0.1c0.2-0.2,0.3-0.5,0.1-0.7l-1.3-2h2.2c1,0,1.8-0.8,1.8-1.8V3C16,2,15.2,1.2,14.2,1.2z
		 M15,11.5c0,0.4-0.3,0.8-0.8,0.8H1.8C1.4,12.3,1,12,1,11.5V3c0-0.4,0.3-0.8,0.8-0.8h12.4C14.6,2.3,15,2.6,15,3V11.5z"/>
	<path class="st0" d="M13,5.2L9.5,7.8l-2-2.3C7.3,5.4,7,5.3,6.8,5.5l-4,2.7C2.5,8.3,2.5,8.6,2.6,8.8C2.7,9,2.9,9.1,3,9.1
		s0.2,0,0.3-0.1L7,6.6l2,2.3C9.2,9.1,9.5,9.1,9.7,9l3.9-3c0.2-0.2,0.3-0.5,0.1-0.7C13.6,5,13.2,5,13,5.2z"/>
</g>
</svg>
