<?xml version="1.0" encoding="utf-8"?>
<!-- Generator: Adobe Illustrator 24.1.2, SVG Export Plug-In . SVG Version: 6.00 Build 0)  -->
<svg version="1.1" id="图层_1" xmlns="http://www.w3.org/2000/svg" xmlns:xlink="http://www.w3.org/1999/xlink" x="0px" y="0px"
	 viewBox="0 0 18 18" style="enable-background:new 0 0 18 18;" xml:space="preserve">
<style type="text/css">
	.st0{fill:#FFC1BA;}
</style>
<g>
	<path class="st0" d="M9,0c5,0,9,4,9,9s-4,9-9,9c-3.6,0-6.8-2.1-8.2-5.3C0.3,11.5,0,10.3,0,9c0-0.4,0.4-0.8,0.8-0.8S1.6,8.6,1.6,9
		c0,1.1,0.2,2.1,0.6,3C3.4,14.6,6,16.4,9,16.4c4.1,0,7.4-3.3,7.4-7.4S13.1,1.6,9,1.6c-2.3,0-4.5,1.1-5.9,2.9C2.8,4.9,2.3,5,2,4.7
		C1.6,4.4,1.6,3.9,1.8,3.6C3.5,1.3,6.1,0,9,0L9,0z"/>
</g>
<path class="st0" d="M11,12.2H7c-0.6,0-1.2-0.5-1.2-1.2V7c0-0.6,0.5-1.2,1.2-1.2h4c0.6,0,1.2,0.5,1.2,1.2v4
	C12.2,11.6,11.6,12.2,11,12.2z"/>
</svg>
