<?xml version="1.0" encoding="utf-8"?>
<!-- Generator: Adobe Illustrator 24.1.2, SVG Export Plug-In . SVG Version: 6.00 Build 0)  -->
<svg version="1.1" id="图层_1" xmlns="http://www.w3.org/2000/svg" xmlns:xlink="http://www.w3.org/1999/xlink" x="0px" y="0px"
	 viewBox="0 0 15 16" style="enable-background:new 0 0 15 16;" xml:space="preserve">
<style type="text/css">
	.st0{fill:#FFC1BA;}
</style>
<g>
	<path class="st0" d="M14.4,11V5.5c0-0.7-0.4-1.4-1-1.8L8.6,0.9c0,0-0.1,0-0.1-0.1C8.3,0.4,7.9,0,7.4,0C6.8,0,6.3,0.5,6.3,1.1
		L1.7,3.7c-0.6,0.4-1,1.1-1,1.8V11C0.3,11.2,0,11.6,0,12c0,0.6,0.5,1.1,1.1,1.1c0.2,0,0.4-0.1,0.5-0.2l4.8,2.8
		c0.3,0.2,0.7,0.3,1,0.3c0.4,0,0.7-0.1,1-0.3l4.8-2.8c0.2,0.1,0.3,0.2,0.5,0.2c0.6,0,1.1-0.5,1.1-1.1C15,11.6,14.8,11.2,14.4,11z
		 M8.1,14.8C7.7,15,7.3,15,7,14.8L2.2,12v-0.1c0-0.4-0.3-0.8-0.6-1V5.5c0-0.4,0.2-0.7,0.5-0.9L6.7,2c0.2,0.2,0.4,0.3,0.7,0.3
		c0.3,0,0.6-0.1,0.8-0.4l4.7,2.7c0.3,0.2,0.5,0.6,0.5,0.9V11c-0.4,0.2-0.6,0.6-0.6,1v0.1L8.1,14.8z"/>
	<path class="st0" d="M8.5,4.6C8.1,4.7,7.8,5.2,8,5.7s0.6,0.7,1.1,0.6c0.5-0.2,0.7-0.6,0.5-1.1C9.5,4.7,9,4.4,8.5,4.6z"/>
	<path class="st0" d="M7.8,6.7L6.9,7C6.6,7.1,6.4,7.5,6.5,7.8C6.6,8,6.8,8.2,7,8.2l-1.3,3.4c-0.1,0.2,0,0.4,0.1,0.6
		c0.1,0.1,0.3,0.2,0.5,0.2h0.1l0.9-0.1c0.3,0,0.6-0.4,0.5-0.7c0-0.3-0.3-0.5-0.6-0.5l1.4-3.6c0.1-0.2,0-0.5-0.1-0.6
		C8.3,6.7,8,6.7,7.8,6.7z"/>
</g>
</svg>
