<?xml version="1.0" encoding="utf-8"?>
<!-- Generator: Adobe Illustrator 24.1.2, SVG Export Plug-In . SVG Version: 6.00 Build 0)  -->
<svg version="1.1" id="图层_1" xmlns="http://www.w3.org/2000/svg" xmlns:xlink="http://www.w3.org/1999/xlink" x="0px" y="0px"
	 viewBox="0 0 14 14" style="enable-background:new 0 0 14 14;" xml:space="preserve">
<style type="text/css">
	.st0{fill:#FFC1BA;}
</style>
<path class="st0" d="M11,0.9c1.2,0,2.2,1,2.2,2.2V11c0,1.2-1,2.2-2.2,2.2H3c-1.2,0-2.2-1-2.2-2.2V3.1c0-1.2,1-2.2,2.2-2.2L11,0.9
	 M11,0H3C1.4,0,0,1.4,0,3.1V11c0,1.6,1.4,3,3,3h8c1.7,0,3-1.4,3-3.1V3.1C14,1.4,12.6,0,11,0L11,0z"/>
<g>
	<path class="st0" d="M11.6,6.6H7.4V2.3C7.4,2.1,7.2,2,7,2S6.6,2.1,6.6,2.3v4.3H2.4C2.2,6.6,2,6.8,2,7s0.2,0.4,0.4,0.4h4.3v4.3
		C6.6,11.9,6.8,12,7,12s0.4-0.2,0.4-0.4V7.4h4.3C11.8,7.4,12,7.2,12,7S11.8,6.6,11.6,6.6z"/>
</g>
</svg>
