<?xml version="1.0" encoding="utf-8"?>
<!-- Generator: Adobe Illustrator 24.1.2, SVG Export Plug-In . SVG Version: 6.00 Build 0)  -->
<svg version="1.1" id="图层_1" xmlns="http://www.w3.org/2000/svg" xmlns:xlink="http://www.w3.org/1999/xlink" x="0px" y="0px"
	 viewBox="0 0 17 16" style="enable-background:new 0 0 17 16;" xml:space="preserve">
<style type="text/css">
	.st0{fill:#FFC1BA;}
</style>
<g>
	<path class="st0" d="M16.6,4.2l-2.7-1c0,0,0,0-0.1,0h-0.1h-0.1h-0.1c0,0,0,0-0.1,0l0,0l0,0c0,0,0,0-0.1,0.1c0,0,0,0-0.1,0.1
		c0,0,0,0.1-0.1,0.1c0,0,0,0,0,0.1l-0.7,2.9c-0.1,0.3,0.1,0.6,0.4,0.7h0.1c0.2,0,0.5-0.2,0.5-0.4L14,5.2C14.4,6,14.6,7,14.6,8
		c0,3.8-3,6.9-6.8,6.9S1.1,11.8,1.1,8s3-6.9,6.8-6.9c0.3,0,0.5-0.2,0.5-0.6S8.1,0,7.8,0C3.5,0,0,3.6,0,8s3.5,8,7.8,8s7.8-3.6,7.8-8
		c0-1.1-0.3-2.3-0.7-3.3l1.3,0.5c0.3,0.1,0.6,0,0.7-0.3C17.1,4.6,16.9,4.3,16.6,4.2z"/>
	<path class="st0" d="M6.9,12.4c0,0.5,0.4,0.9,0.9,0.9s0.9-0.4,0.9-0.9s-0.4-0.9-0.9-0.9C7.3,11.4,6.9,11.9,6.9,12.4z"/>
	<path class="st0" d="M7.3,3L5,5.4c-0.3,0.3-0.3,0.7,0,1s0.7,0.3,0.9,0L7.2,5v4.5c0,0.4,0.3,0.7,0.7,0.7s0.7-0.3,0.7-0.7V5.1
		l1.3,1.3c0.1,0.1,0.3,0.2,0.5,0.2s0.3-0.1,0.5-0.2c0.3-0.3,0.3-0.7,0-0.9L8.3,3C8,2.7,7.6,2.7,7.3,3z"/>
</g>
</svg>
