<?xml version="1.0" encoding="utf-8"?>
<!-- Generator: Adobe Illustrator 24.1.2, SVG Export Plug-In . SVG Version: 6.00 Build 0)  -->
<svg version="1.1" id="图层_1" xmlns="http://www.w3.org/2000/svg" xmlns:xlink="http://www.w3.org/1999/xlink" x="0px" y="0px"
	 viewBox="0 0 14 14" style="enable-background:new 0 0 14 14;" xml:space="preserve">
<style type="text/css">
	.st0{fill:#FFC1BA;}
</style>
<g>
	<path class="st0" d="M13.1,14c-0.3,0-0.6-0.1-0.8-0.3L9.1,11c-0.1-0.1-0.2-0.2-0.2-0.3c-0.8,0.6-1.7,0.9-2.6,1
		c-3.2,0.4-6-2-6.3-5.3C-0.2,3.2,2,0.3,5.2,0c1.5-0.2,3,0.4,4.2,1.4c1.1,1,1.9,2.4,2,4c0.1,1.5-0.2,2.9-1,4l0.2,0.1l3.1,2.7
		c0.4,0.4,0.5,1,0.1,1.5C13.5,13.8,13.3,14,13.1,14z M5,1.2C2.7,1.6,1,3.8,1.2,6.3c0.2,2.6,2.4,4.5,4.9,4.3c2.5-0.3,4.3-2.5,4-5.1
		C10,4.2,9.5,3.1,8.5,2.3C7.6,1.5,6.4,1.1,5.3,1.2H5z"/>
</g>
</svg>
