<?xml version="1.0" encoding="utf-8"?>
<!-- Generator: Adobe Illustrator 24.1.2, SVG Export Plug-In . SVG Version: 6.00 Build 0)  -->
<svg version="1.1" id="图层_1" xmlns="http://www.w3.org/2000/svg" xmlns:xlink="http://www.w3.org/1999/xlink" x="0px" y="0px"
	 viewBox="0 0 16 16" style="enable-background:new 0 0 16 16;" xml:space="preserve">
<style type="text/css">
	.st0{fill:#FFC1BA;}
</style>
<g>
	<path class="st0" d="M15.7,12.3c-0.2,0-0.4-0.1-0.6-0.2c-0.1-0.1-0.2-0.3-0.2-0.6c0-0.1,0-0.2,0.1-0.3c0.1-0.2,0-0.3-0.1-0.4
		l-0.8-0.4H14c-0.1,0-0.2,0-0.3,0.1s-0.4,0.3-0.6,0.3s-0.5-0.2-0.6-0.3s-0.2-0.1-0.3-0.1l0,0h-0.1l-0.8,0.4C11,10.9,11,11.1,11,11.2
		c0,0.1,0.1,0.2,0.1,0.3c0,0.4-0.4,0.8-0.8,0.8l0,0c-0.1,0-0.2,0.1-0.3,0.3c0,0.2-0.1,0.3-0.1,0.5v0.1c0,0.2,0,0.4,0.1,0.5
		c0,0.2,0.1,0.3,0.3,0.3l0,0c0.4,0,0.8,0.4,0.8,0.8c0,0.1,0,0.2-0.1,0.3c-0.1,0.2,0,0.3,0.1,0.4l0.7,0.4h0.1c0.1,0,0.2,0,0.3-0.1
		s0.4-0.4,0.6-0.4s0.5,0.3,0.6,0.4c0.1,0.1,0.2,0.1,0.3,0.1h0.1l0.8-0.4c0.1-0.1,0.2-0.3,0.1-0.4c0-0.1-0.1-0.2-0.1-0.3
		c0-0.4,0.4-0.8,0.8-0.8l0,0c0.1,0,0.2,0,0.2-0.2s0.1-0.3,0.1-0.5c0-0.3,0-0.5,0-0.8C16,12.4,15.8,12.3,15.7,12.3z M14.3,13.5
		c-0.1,0.5-0.5,0.9-1,1s-1,0-1.3-0.4c-0.3-0.3-0.5-0.8-0.4-1.3s0.5-0.9,1-1s1,0,1.3,0.4C14.3,12.5,14.5,13,14.3,13.5z"/>
	<path class="st0" d="M8.4,14.6H3.2c-0.5,0-0.8-0.4-0.8-0.8v-12C2.4,1.4,2.7,1,3.2,1h9.7c0.5,0,0.8,0.4,0.8,0.8V8
		c0,0.3,0.2,0.5,0.5,0.5s0.5-0.2,0.5-0.5V1.8c0-1-0.8-1.8-1.9-1.8H3.2c-1,0-1.9,0.8-1.9,1.8v1.9H0.5C0.2,3.8,0,4,0,4.3
		s0.2,0.5,0.5,0.5h0.8v2.5H0.5C0.2,7.3,0,7.5,0,7.8s0.2,0.5,0.5,0.5h0.8v2.5H0.5C0.2,10.8,0,11,0,11.3s0.2,0.5,0.5,0.5h0.8v1.9
		c0,1,0.8,1.8,1.9,1.8h5.2c0.3,0,0.5-0.2,0.5-0.5C8.9,14.8,8.7,14.6,8.4,14.6z"/>
	<path class="st0" d="M4.8,4.1c-0.3,0-0.5,0.2-0.5,0.5s0.2,0.5,0.5,0.5h6.1c0.3,0,0.5-0.2,0.5-0.5s-0.2-0.5-0.5-0.5H4.8z"/>
	<path class="st0" d="M8.4,7.9H4.8c-0.3,0-0.5,0.2-0.5,0.5C4.3,8.7,4.6,9,4.8,9h3.6C8.7,9,9,8.7,9,8.4C9,8.2,8.7,7.9,8.4,7.9z"/>
</g>
</svg>
