<?xml version="1.0" encoding="utf-8"?>
<!-- Generator: Adobe Illustrator 24.1.2, SVG Export Plug-In . SVG Version: 6.00 Build 0)  -->
<svg version="1.1" id="图层_1" xmlns="http://www.w3.org/2000/svg" xmlns:xlink="http://www.w3.org/1999/xlink" x="0px" y="0px"
	 viewBox="0 0 16 16" style="enable-background:new 0 0 16 16;" xml:space="preserve">
<style type="text/css">
	.st0{fill:#FFC1BA;}
</style>
<g>
	<path class="st0" d="M11.6,7.5H7.2C7,7.1,6.6,6.8,6.1,6.8s-0.9,0.3-1,0.7H4.3C4.1,7.5,3.8,7.7,3.8,8S4,8.5,4.3,8.5H5
		c0.2,0.4,0.6,0.7,1.1,0.7S7,8.9,7.2,8.5h4.4c0.3,0,0.5-0.2,0.5-0.5S11.9,7.5,11.6,7.5z"/>
	<path class="st0" d="M11.6,3.7h-0.8C10.6,3.3,10.2,3,9.8,3C9.3,3,8.9,3.3,8.7,3.7H4.3C4.1,3.7,3.8,4,3.8,4.2c0,0.3,0.2,0.5,0.5,0.5
		h4.4c0.2,0.4,0.6,0.7,1,0.7c0.5,0,0.9-0.3,1-0.7h0.8c0.3,0,0.5-0.2,0.5-0.5C12.1,4,11.9,3.7,11.6,3.7z"/>
	<path class="st0" d="M13.8,0H2.2C1,0,0,1,0,2.2v8c0,1.2,1,2.2,2.2,2.2h5.3V15H3.9c-0.3,0-0.5,0.2-0.5,0.5S3.6,16,3.9,16H12
		c0.3,0,0.5-0.2,0.5-0.5S12.2,15,11.9,15H8.5v-2.6h5.3c1.2,0,2.2-1,2.2-2.2v-8C16,1,15,0,13.8,0z M15,10.2c0,0.7-0.5,1.2-1.2,1.2
		H2.2c-0.6,0-1.2-0.5-1.2-1.2v-8C1,1.6,1.5,1,2.2,1h11.6C14.5,1,15,1.6,15,2.2V10.2z"/>
</g>
</svg>
