<?xml version="1.0" encoding="utf-8"?>
<!-- Generator: Adobe Illustrator 24.1.2, SVG Export Plug-In . SVG Version: 6.00 Build 0)  -->
<svg version="1.1" id="图层_1" xmlns="http://www.w3.org/2000/svg" xmlns:xlink="http://www.w3.org/1999/xlink" x="0px" y="0px"
	 viewBox="0 0 20 18" style="enable-background:new 0 0 20 18;" xml:space="preserve">
<style type="text/css">
	.st0{fill:#FFC1BA;}
</style>
<g>
	<g>
		<path class="st0" d="M10.8,0C7.9,0,5.2,1.3,3.4,3.6C3.2,3.9,3.2,4.4,3.6,4.7C4,5,4.5,4.9,4.8,4.5c1.4-1.8,3.6-2.9,6-2.9
			c4.2,0,7.6,3.3,7.6,7.4s-3.4,7.4-7.6,7.4c-3,0-5.7-1.7-6.9-4.4c-0.2-0.4-0.3-0.9-0.5-1.3h0.9c0.1,0,0.2-0.1,0.2-0.1
			c0-0.1,0-0.2,0-0.3l-2-2.7c0-0.1-0.1-0.1-0.2-0.1c-0.1,0-0.2,0-0.2,0.1l-2,2.7C0,10.3,0,10.4,0,10.5s0.1,0.1,0.2,0.1h1.5
			c0.1,0.7,0.3,1.4,0.6,2c1.5,3.2,4.7,5.3,8.4,5.3c5.1,0,9.2-4,9.2-9S15.9,0,10.8,0z"/>
	</g>
	<g>
		<path class="st0" d="M9,5.5C8.7,5.2,8.2,5.1,7.9,5.4c-1.4,1.1-2,2.9-1.5,4.6c0.7,2.4,3.1,3.8,5.5,3.2s3.7-3.1,3.1-5.4
			c-0.2-0.9-0.7-1.6-1.4-2.2c-0.3-0.3-0.9-0.3-1.2,0.1c-0.3,0.3-0.3,0.8,0.1,1.1c0.4,0.4,0.7,0.9,0.9,1.4c0.4,1.5-0.4,3.1-1.9,3.5
			s-3-0.5-3.5-2.1c-0.3-1.1,0.1-2.3,0.9-3C9.3,6.4,9.3,5.9,9,5.5z"/>
	</g>
	<g>
		<path class="st0" d="M10.7,4.1L10.7,4.1L10.7,4.1z"/>
	</g>
	<g>
		<path class="st0" d="M9.8,5v2.5c0,0.5,0.3,0.8,0.8,0.8c0.6,0,0.8-0.3,0.8-0.8V5c0-0.5-0.3-0.8-0.8-0.8C10.1,4.1,9.8,4.4,9.8,5z"/>
	</g>
	<g>
		<path class="st0" d="M10.7,8.2L10.7,8.2L10.7,8.2z"/>
	</g>
</g>
</svg>
